<svg width="24" height="24" viewBox="0 0 24 24" fill="none" xmlns="http://www.w3.org/2000/svg">
<path d="M16.3484 18.5296C16.3483 18.5419 16.3449 18.5539 16.3387 18.5645C16.3324 18.575 16.3235 18.5837 16.3129 18.5895C16.3023 18.5954 16.2903 18.5983 16.2783 18.5978C16.2663 18.5973 16.2547 18.5935 16.2447 18.5869L12.4966 16.1418C12.474 16.1267 12.4478 16.1177 12.4207 16.1158C12.3935 16.1139 12.3664 16.1191 12.3419 16.1309C6.64387 18.8345 0.179863 15.0678 0.00344546 8.70128C-0.128094 3.98598 3.52251 0.114076 8.25329 0.00265403C12.8417 -0.10722 16.5171 3.20603 16.9148 7.78205C17.116 10.091 16.451 12.1951 14.92 14.0944C14.9126 14.1037 14.9071 14.1144 14.904 14.1259C14.9008 14.1373 14.9001 14.1493 14.9019 14.1609C14.9036 14.1726 14.9078 14.1837 14.9141 14.1936C14.9204 14.2035 14.9288 14.2118 14.9386 14.2182L16.237 15.0632C16.2712 15.086 16.2993 15.1169 16.3187 15.1531C16.3381 15.1892 16.3483 15.2296 16.3484 15.2705V18.5296ZM2.92981 8.45213C2.90041 11.7174 5.08861 14.0696 8.42816 14.1006C11.7677 14.1315 13.9993 11.8211 14.0302 8.55581C14.0612 5.29209 11.873 2.93985 8.5334 2.90736C5.19229 2.87641 2.96076 5.18841 2.92981 8.45213Z" fill="#42D796"/>
<path d="M21.9694 23.9999C23.0794 23.9999 23.9792 23.1001 23.9792 21.9902C23.9792 20.8802 23.0794 19.9805 21.9694 19.9805C20.8595 19.9805 19.9597 20.8802 19.9597 21.9902C19.9597 23.1001 20.8595 23.9999 21.9694 23.9999Z" fill="#F4B942"/>
<path d="M15.9888 19.9936L2.74276 20.0167C1.70516 20.0186 0.865482 20.8612 0.867293 21.8988L0.86745 21.9891C0.869261 23.0267 1.71187 23.8664 2.74947 23.8646L15.9955 23.8414C17.0331 23.8396 17.8728 22.997 17.871 21.9594L17.8708 21.8691C17.869 20.8315 17.0264 19.9918 15.9888 19.9936Z" fill="#F4B942"/>
</svg>
