<svg width="41" height="41" viewBox="0 0 41 41" fill="none" xmlns="http://www.w3.org/2000/svg">
<g clip-path="url(#clip0_170_1131)">
<path d="M28.1667 20.2656C28.0562 20.2656 27.9502 20.3095 27.872 20.3877C27.7939 20.4658 27.75 20.5718 27.75 20.6823V26.9323C27.75 27.3743 27.9256 27.7982 28.2382 28.1108C28.5507 28.4234 28.9746 28.599 29.4167 28.599H30.25C31.5761 28.599 32.8479 28.0722 33.7855 27.1345C34.7232 26.1968 35.25 24.925 35.25 23.599V20.6823C35.25 20.5718 35.2061 20.4658 35.128 20.3877C35.0498 20.3095 34.9438 20.2656 34.8333 20.2656H28.1667Z" fill="#F4B942"/>
<path d="M22.7333 22.7656C22.7333 22.1026 22.4699 21.4667 22.0011 20.9979C21.5323 20.529 20.8964 20.2656 20.2333 20.2656C19.5703 20.2656 18.9344 20.529 18.4656 20.9979C17.9967 21.4667 17.7333 22.1026 17.7333 22.7656V35.2656C17.7356 35.3517 17.7113 35.4363 17.6635 35.508C17.6158 35.5796 17.547 35.6347 17.4667 35.6656C17.3843 35.6903 17.2965 35.6909 17.2138 35.6673C17.1311 35.6436 17.0569 35.5968 17 35.5323L14.8667 32.9823C14.7064 32.7898 14.5048 32.6358 14.2768 32.532C14.0489 32.4281 13.8004 32.3769 13.55 32.3823H11.8833C11.6014 32.3863 11.325 32.4618 11.0801 32.6017C10.8353 32.7416 10.6299 32.9414 10.4833 33.1823C10.3265 33.432 10.2433 33.7208 10.2433 34.0156C10.2433 34.3105 10.3265 34.5993 10.4833 34.849L13.3333 40.049C13.3706 40.1136 13.424 40.1675 13.4882 40.2054C13.5524 40.2434 13.6254 40.2641 13.7 40.2656H31.55C31.649 40.2637 31.7443 40.2279 31.8201 40.1642C31.8959 40.1005 31.9476 40.0128 31.9667 39.9156L32.7333 34.799C32.7797 34.4512 32.7081 34.0979 32.5298 33.7957C32.3515 33.4935 32.0769 33.2599 31.75 33.1323L23.0167 29.999C22.9346 29.9687 22.8636 29.9143 22.813 29.8429C22.7624 29.7715 22.7347 29.6864 22.7333 29.599V22.7656ZM39.4167 3.59896C39.4167 2.7149 39.0655 1.86706 38.4404 1.24194C37.8152 0.616815 36.9674 0.265625 36.0833 0.265625L31.0833 0.265625C30.1993 0.265625 29.3514 0.616815 28.7263 1.24194C28.1012 1.86706 27.75 2.7149 27.75 3.59896V14.4323C27.75 15.3163 28.1012 16.1642 28.7263 16.7893C29.3514 17.4144 30.1993 17.7656 31.0833 17.7656H36.0833C36.9674 17.7656 37.8152 17.4144 38.4404 16.7893C39.0655 16.1642 39.4167 15.3163 39.4167 14.4323V3.59896ZM30.25 4.01562C30.25 3.90512 30.2939 3.79914 30.372 3.721C30.4502 3.64286 30.5562 3.59896 30.6667 3.59896H36.5C36.6105 3.59896 36.7165 3.64286 36.7946 3.721C36.8728 3.79914 36.9167 3.90512 36.9167 4.01562V13.1823C36.9167 13.2928 36.8728 13.3988 36.7946 13.4769C36.7165 13.5551 36.6105 13.599 36.5 13.599H30.6667C30.5562 13.599 30.4502 13.5551 30.372 13.4769C30.2939 13.3988 30.25 13.2928 30.25 13.1823V4.01562Z" fill="#F4B942"/>
<path d="M12.75 28.599C13.192 28.599 13.616 28.4234 13.9285 28.1108C14.2411 27.7982 14.4167 27.3743 14.4167 26.9323C14.4167 26.4903 14.2411 26.0663 13.9285 25.7538C13.616 25.4412 13.192 25.2656 12.75 25.2656H10.25C10.029 25.2656 9.81703 25.1778 9.66075 25.0215C9.50447 24.8653 9.41667 24.6533 9.41667 24.4323V9.43229C9.41667 9.21128 9.50447 8.99932 9.66075 8.84304C9.81703 8.68676 10.029 8.59896 10.25 8.59896H22.75C23.192 8.59896 23.616 8.42336 23.9285 8.1108C24.2411 7.79824 24.4167 7.37432 24.4167 6.93229C24.4167 6.49026 24.2411 6.06634 23.9285 5.75378C23.616 5.44122 23.192 5.26563 22.75 5.26562H6.91667C5.59059 5.26563 4.31882 5.79241 3.38114 6.73009C2.44346 7.66777 1.91667 8.93954 1.91667 10.2656V23.599C1.91667 24.925 2.44346 26.1968 3.38114 27.1345C4.31882 28.0722 5.59059 28.599 6.91667 28.599H12.75Z" fill="#F4B942"/>
</g>
<defs>
<clipPath id="clip0_170_1131">
<rect width="40" height="40" fill="white" transform="translate(0.666672 0.265625)"/>
</clipPath>
</defs>
</svg>
