<svg width="90" height="91" viewBox="0 0 90 91" fill="none" xmlns="http://www.w3.org/2000/svg">
<path d="M45.0001 8.46729C37.7269 8.4811 30.6146 10.6097 24.5297 14.5938C18.4447 18.5779 13.6497 24.2456 10.7286 30.9064C7.80751 37.5673 6.88647 44.9338 8.07766 52.1089C9.26885 59.2839 12.5209 65.9576 17.4376 71.3173C20.9491 75.1237 25.2111 78.1615 29.9548 80.2393C34.6986 82.3171 39.8212 83.3898 45.0001 83.3898C50.1789 83.3898 55.3016 82.3171 60.0453 80.2393C64.789 78.1615 69.051 75.1237 72.5626 71.3173C77.4793 65.9576 80.7313 59.2839 81.9225 52.1089C83.1137 44.9338 82.1926 37.5673 79.2715 30.9064C76.3505 24.2456 71.5554 18.5779 65.4705 14.5938C59.3855 10.6097 52.2733 8.4811 45.0001 8.46729ZM45.0001 75.9673C37.2318 75.9555 29.771 72.9308 24.1876 67.5298C25.8827 63.403 28.7664 59.8734 32.4723 57.3894C36.1781 54.9053 40.5387 53.579 45.0001 53.579C49.4614 53.579 53.822 54.9053 57.5279 57.3894C61.2337 59.8734 64.1174 63.403 65.8126 67.5298C60.2291 72.9308 52.7683 75.9555 45.0001 75.9673ZM37.5001 38.4673C37.5001 36.9839 37.9399 35.5339 38.764 34.3005C39.5882 33.0671 40.7595 32.1058 42.1299 31.5382C43.5004 30.9705 45.0084 30.822 46.4632 31.1114C47.9181 31.4008 49.2545 32.1151 50.3034 33.164C51.3523 34.2129 52.0666 35.5492 52.3559 37.0041C52.6453 38.459 52.4968 39.967 51.9292 41.3374C51.3615 42.7079 50.4002 43.8792 49.1668 44.7033C47.9335 45.5274 46.4834 45.9673 45.0001 45.9673C43.0109 45.9673 41.1033 45.1771 39.6968 43.7706C38.2902 42.3641 37.5001 40.4564 37.5001 38.4673ZM70.9126 60.9673C67.5621 55.2364 62.4053 50.7786 56.2501 48.2923C58.1594 46.1272 59.4035 43.4572 59.8331 40.6027C60.2626 37.7481 59.8593 34.8302 58.6716 32.1991C57.4839 29.5681 55.5623 27.3356 53.1372 25.7697C50.7122 24.2037 47.8868 23.3707 45.0001 23.3707C42.1133 23.3707 39.288 24.2037 36.8629 25.7697C34.4379 27.3356 32.5162 29.5681 31.3285 32.1991C30.1408 34.8302 29.7375 37.7481 30.167 40.6027C30.5966 43.4572 31.8407 46.1272 33.7501 48.2923C27.5948 50.7786 22.4381 55.2364 19.0876 60.9673C16.414 56.4203 15.0029 51.242 15.0001 45.9673C15.0001 38.0108 18.1608 30.3802 23.7869 24.7541C29.413 19.128 37.0436 15.9673 45.0001 15.9673C52.9566 15.9673 60.5872 19.128 66.2133 24.7541C71.8394 30.3802 75.0001 38.0108 75.0001 45.9673C74.9972 51.242 73.5861 56.4203 70.9126 60.9673Z" fill="#767676"/>
</svg>
