<svg width="40" height="41" viewBox="0 0 40 41" fill="none" xmlns="http://www.w3.org/2000/svg">
<g clip-path="url(#clip0_170_1121)">
<path d="M21.1111 33.5988H4.44445C3.85508 33.5988 3.28985 33.3647 2.8731 32.9479C2.45636 32.5312 2.22223 31.9659 2.22223 31.3766V9.15435C2.22223 8.56498 2.45636 7.99975 2.8731 7.583C3.28985 7.16626 3.85508 6.93213 4.44445 6.93213H35.5556C36.1449 6.93213 36.7102 7.16626 37.1269 7.583C37.5437 7.99975 37.7778 8.56498 37.7778 9.15435V20.6766C36.2975 18.7913 34.1443 17.5529 31.7704 17.2215C29.3964 16.8901 26.9864 17.4915 25.0465 18.8994C23.1065 20.3072 21.7876 22.412 21.3666 24.7718C20.9456 27.1315 21.4554 29.5625 22.7889 31.5544L21.7556 32.821L21.1111 33.5988ZM7.77778 13.5988V15.3766H26.6667V13.5988H7.77778ZM7.77778 19.821H20V18.0432H7.77778V19.821ZM7.77778 27.5988H18.8889V25.821H7.77778V27.5988Z" fill="#F4B942"/>
<path d="M37.5889 26.4766C37.5919 25.305 37.304 24.1511 36.751 23.1182C36.1981 22.0853 35.3974 21.2059 34.4208 20.5587C33.4442 19.9116 32.3223 19.5169 31.1556 19.4103C29.9889 19.3036 28.814 19.4882 27.7362 19.9475C26.6584 20.4068 25.7115 21.1265 24.9805 22.042C24.2494 22.9575 23.757 24.0401 23.5475 25.1928C23.3379 26.3454 23.4178 27.5321 23.7799 28.6463C24.142 29.7605 24.7751 30.7674 25.6222 31.5766L23.4667 34.2099L24.4667 38.221L28.5333 33.2655C29.8206 33.6461 31.1905 33.6461 32.4778 33.2655L36.5444 38.221L37.5444 34.2099L35.3889 31.5766C36.0821 30.92 36.6346 30.1293 37.0127 29.2526C37.3909 28.3759 37.587 27.4314 37.5889 26.4766ZM25.6555 26.4766C25.6423 25.5135 25.9158 24.5683 26.4413 23.7611C26.9667 22.9539 27.7203 22.3211 28.6063 21.9434C29.4923 21.5656 30.4706 21.4599 31.4168 21.6397C32.3631 21.8194 33.2345 22.2766 33.9202 22.9529C34.606 23.6292 35.0751 24.4942 35.2679 25.4379C35.4607 26.3815 35.3685 27.3612 35.0031 28.2523C34.6376 29.1435 34.0154 29.9058 33.2155 30.4423C32.4156 30.9789 31.4743 31.2654 30.5111 31.2655C29.235 31.2685 28.0094 30.7667 27.1019 29.8695C26.1943 28.9723 25.6784 27.7527 25.6667 26.4766H25.6555Z" fill="#F4B942"/>
</g>
<defs>
<clipPath id="clip0_170_1121">
<rect width="40" height="40" fill="white" transform="translate(0 0.265625)"/>
</clipPath>
</defs>
</svg>
