<svg width="180" height="52" viewBox="0 0 180 52" fill="none" xmlns="http://www.w3.org/2000/svg">
<path d="M56.9989 33.1462C56.9988 33.1609 56.9948 33.1754 56.9872 33.1882C56.9797 33.2009 56.969 33.2113 56.9562 33.2184C56.9434 33.2255 56.929 33.2289 56.9145 33.2283C56.9 33.2278 56.886 33.2232 56.874 33.2152L52.3572 30.2686C52.3299 30.2504 52.2984 30.2396 52.2657 30.2373C52.233 30.235 52.2002 30.2413 52.1707 30.2556C45.3042 33.5135 37.5145 28.9744 37.3019 21.3022C37.1434 15.6199 41.5427 10.9539 47.2437 10.8196C52.7731 10.6872 57.2022 14.6799 57.6815 20.1944C57.9239 22.9769 57.1226 25.5125 55.2776 27.8014C55.2686 27.8125 55.262 27.8255 55.2583 27.8393C55.2545 27.8531 55.2537 27.8675 55.2558 27.8815C55.2579 27.8956 55.2629 27.909 55.2705 27.9209C55.2781 27.9328 55.2882 27.9429 55.3 27.9506L56.8647 28.9688C56.9059 28.9963 56.9397 29.0336 56.9632 29.0771C56.9866 29.1207 56.9989 29.1693 56.9989 29.2187V33.1462ZM40.8284 21.0019C40.793 24.9369 43.4299 27.7715 47.4544 27.8088C51.4788 27.8461 54.168 25.0618 54.2053 21.1269C54.2426 17.1938 51.6056 14.3592 47.5812 14.32C43.5549 14.2827 40.8657 17.0689 40.8284 21.0019Z" fill="#42D796"/>
<path d="M80.7523 10.9819C80.7919 10.9819 80.8298 10.9977 80.8578 11.0256C80.8858 11.0536 80.9015 11.0916 80.9015 11.1311C80.9028 16.8066 80.9021 20.6346 80.8997 22.6152C80.8997 23.9256 80.7113 25.1738 80.3346 26.3599C78.824 31.1247 74.1114 31.5611 69.9173 31.2552C69.1875 31.2018 68.416 31.0545 67.6029 30.8133C63.7239 29.6663 62.4633 26.289 62.4521 22.5685C62.4421 19.6991 62.4459 15.9053 62.4633 11.1871C62.4633 11.1606 62.4684 11.1344 62.4785 11.11C62.4885 11.0856 62.5032 11.0634 62.5217 11.0447C62.5402 11.026 62.5622 11.0111 62.5865 11.001C62.6107 10.9909 62.6366 10.9857 62.6628 10.9857H65.8238C65.8414 10.9857 65.8587 10.9891 65.8749 10.9959C65.8911 11.0027 65.9058 11.0126 65.9181 11.0251C65.9304 11.0376 65.9401 11.0524 65.9467 11.0687C65.9532 11.085 65.9565 11.1024 65.9562 11.1199C65.9202 15.7499 65.9264 19.783 65.9749 23.2194C65.9861 23.9939 66.1154 24.7648 66.3628 25.5319C66.8551 27.0518 68.2053 27.5833 69.6935 27.7287C70.795 27.8356 72.0843 27.8419 73.5613 27.7474C74.3818 27.6952 75.0899 27.5093 75.6854 27.1898C77.4832 26.2256 77.3918 23.4506 77.3974 21.7293C77.4061 18.9158 77.4129 15.4036 77.4179 11.1927C77.4179 11.1368 77.4401 11.0832 77.4796 11.0437C77.5191 11.0041 77.5727 10.9819 77.6286 10.9819H80.7523Z" fill="#42D796"/>
<path d="M113.938 11.0153C113.956 11.0167 113.974 11.0248 113.986 11.0379C113.998 11.0511 114.005 11.0683 114.005 11.0862V27.501C114.005 27.5159 114.008 27.5307 114.014 27.5445C114.019 27.5583 114.028 27.5709 114.038 27.5814C114.048 27.592 114.061 27.6004 114.074 27.6061C114.088 27.6118 114.102 27.6147 114.117 27.6147H125.642C125.687 27.6147 125.73 27.6324 125.762 27.6639C125.794 27.6954 125.812 27.7381 125.812 27.7826V30.9939C125.812 31.037 125.795 31.0782 125.764 31.1087C125.734 31.1391 125.693 31.1562 125.65 31.1562H110.579C110.57 31.1562 110.56 31.1542 110.551 31.1504C110.542 31.1465 110.534 31.1409 110.527 31.1338C110.52 31.1267 110.514 31.1183 110.511 31.109C110.507 31.0997 110.505 31.0898 110.505 31.0797V11.2148C110.505 11.1731 110.52 11.1327 110.548 11.1017C110.576 11.0707 110.614 11.0512 110.656 11.047C111.8 10.9401 112.894 10.9295 113.938 11.0153Z" fill="#42D796"/>
<path d="M133.754 10.9734L130.781 10.9682C130.636 10.968 130.518 11.0855 130.517 11.2307L130.483 30.8942C130.483 31.0394 130.6 31.1573 130.746 31.1576L133.718 31.1628C133.864 31.163 133.981 31.0455 133.982 30.9003L134.016 11.2368C134.016 11.0916 133.899 10.9737 133.754 10.9734Z" fill="#42D796"/>
<path d="M95.7088 11.0117C96.4137 11.0117 97.0211 11.021 97.5308 11.0397C97.5616 11.0403 97.5916 11.05 97.6171 11.0676C97.6426 11.0851 97.6625 11.1098 97.6744 11.1385L105.776 31.0314C105.779 31.0412 105.781 31.0519 105.78 31.0624C105.779 31.0729 105.775 31.083 105.769 31.0919C105.763 31.1007 105.755 31.1079 105.746 31.113C105.737 31.118 105.726 31.1208 105.716 31.1209H102.139C102.092 31.1209 102.046 31.107 102.008 31.0811C101.969 31.0552 101.939 31.0184 101.921 30.9754C100.42 27.2829 98.3725 22.2564 95.7778 15.8959C95.7666 15.8685 95.7436 15.8549 95.7088 15.8549C95.674 15.8549 95.651 15.8685 95.6398 15.8959C93.0464 22.2564 90.9993 27.2836 89.4987 30.9773C89.481 31.0203 89.4508 31.0571 89.4119 31.083C89.3731 31.1089 89.3274 31.1227 89.2805 31.1228H85.7036C85.693 31.1226 85.6826 31.1199 85.6733 31.1148C85.664 31.1098 85.6561 31.1025 85.6502 31.0937C85.6444 31.0849 85.6407 31.0748 85.6396 31.0643C85.6385 31.0537 85.64 31.0431 85.644 31.0333L93.7413 11.1385C93.7533 11.1098 93.7732 11.0851 93.7987 11.0676C93.8242 11.05 93.8541 11.0403 93.8849 11.0397C94.3947 11.0223 95.0026 11.013 95.7088 11.0117Z" fill="#42D796"/>
<path d="M139.517 44.9676C141.35 44.9676 142.837 43.4814 142.837 41.6481C142.837 39.8148 141.35 38.3286 139.517 38.3286C137.684 38.3286 136.198 39.8148 136.198 41.6481C136.198 43.4814 137.684 44.9676 139.517 44.9676Z" fill="#F4B942"/>
<path d="M129.624 38.3509L107.745 38.3891C106.031 38.3921 104.644 39.7839 104.647 41.4977L104.647 41.6469C104.65 43.3608 106.042 44.7477 107.756 44.7447L129.635 44.7065C131.349 44.7035 132.736 43.3117 132.733 41.5979L132.732 41.4487C132.729 39.7349 131.338 38.3479 129.624 38.3509Z" fill="#F4B942"/>
</svg>
