<svg width="127" height="20" viewBox="0 0 127 20" fill="none" xmlns="http://www.w3.org/2000/svg">
<path d="M117.351 0.318445C122.68 0.318445 127 4.6385 127 9.96757C127 15.2966 122.68 19.6167 117.351 19.6167C112.022 19.6167 107.702 15.2966 107.702 9.96757C107.702 4.6385 112.022 0.318445 117.351 0.318445Z" fill="#F4B942"/>
<path d="M72.6178 19.2591L9.02031 19.1481C4.03854 19.1394 0.0070562 15.0938 0.015751 10.112L0.0165079 9.67836C0.0252028 4.69658 4.07078 0.665103 9.05255 0.673798L72.65 0.784796C77.6318 0.793491 81.6633 4.83907 81.6546 9.82084L81.6538 10.2545C81.6451 15.2363 77.5995 19.2678 72.6178 19.2591Z" fill="#F4B942"/>
</svg>
