<svg width="41" height="41" viewBox="0 0 41 41" fill="none" xmlns="http://www.w3.org/2000/svg">
<g clip-path="url(#clip0_170_1136)">
<path d="M34.5 21.5155C34.9421 21.5155 35.366 21.3399 35.6785 21.0273C35.9911 20.7147 36.1667 20.2908 36.1667 19.8488V12.0821C36.1846 10.9578 35.7561 9.87214 34.9751 9.06305C34.1941 8.25397 33.1243 7.78737 32 7.76546H15.75C15.308 7.76546 14.8841 7.94106 14.5715 8.25362C14.259 8.56618 14.0834 8.9901 14.0834 9.43213C14.0834 9.87416 14.259 10.2981 14.5715 10.6106C14.8841 10.9232 15.308 11.0988 15.75 11.0988H32C32.2404 11.12 32.4627 11.2352 32.6187 11.4193C32.7747 11.6034 32.8519 11.8415 32.8334 12.0821V19.8488C32.8334 20.2908 33.009 20.7147 33.3215 21.0273C33.6341 21.3399 34.058 21.5155 34.5 21.5155ZM18.25 31.9321C18.3605 31.9321 18.4665 31.976 18.5447 32.0542C18.6228 32.1323 18.6667 32.2383 18.6667 32.3488V34.8488C18.6667 34.9593 18.6228 35.0653 18.5447 35.1434C18.4665 35.2216 18.3605 35.2655 18.25 35.2655H15.3334C14.8913 35.2655 14.4674 35.4411 14.1549 35.7536C13.8423 36.0662 13.6667 36.4901 13.6667 36.9321C13.6667 37.3742 13.8423 37.7981 14.1549 38.1106C14.4674 38.4232 14.8913 38.5988 15.3334 38.5988H24.9167C25.3587 38.5988 25.7826 38.4232 26.0952 38.1106C26.4078 37.7981 26.5834 37.3742 26.5834 36.9321C26.5834 36.4901 26.4078 36.0662 26.0952 35.7536C25.7826 35.4411 25.3587 35.2655 24.9167 35.2655H22.4167C22.3062 35.2655 22.2002 35.2216 22.1221 35.1434C22.0439 35.0653 22 34.9593 22 34.8488V32.3488C22 32.2383 22.0439 32.1323 22.1221 32.0542C22.2002 31.976 22.3062 31.9321 22.4167 31.9321H25.75C25.971 31.9321 26.183 31.8443 26.3393 31.6881C26.4956 31.5318 26.5834 31.3198 26.5834 31.0988V29.0155C26.5834 28.7944 26.4956 28.5825 26.3393 28.4262C26.183 28.2699 25.971 28.1821 25.75 28.1821H8.6667C8.44569 28.1821 8.23372 28.0943 8.07744 27.9381C7.92116 27.7818 7.83337 27.5698 7.83337 27.3488V20.6821C7.83337 20.2401 7.65777 19.8162 7.34521 19.5036C7.03265 19.1911 6.60873 19.0155 6.1667 19.0155C5.72467 19.0155 5.30075 19.1911 4.98819 19.5036C4.67563 19.8162 4.50003 20.2401 4.50003 20.6821V27.6155C4.48218 28.7398 4.91066 29.8255 5.69163 30.6345C6.4726 31.4436 7.5424 31.9102 8.6667 31.9321H18.25ZM3.38337 16.5155H8.95003C9.66031 16.498 10.3351 16.2012 10.828 15.6896C11.321 15.1779 11.5924 14.4926 11.5834 13.7821V3.41546C11.5924 2.70503 11.321 2.01969 10.828 1.50802C10.3351 0.996359 9.66031 0.699615 8.95003 0.682129H3.38337C2.67309 0.699615 1.99834 0.996359 1.50539 1.50802C1.01245 2.01969 0.741046 2.70503 0.750033 3.41546V13.7821C0.741046 14.4926 1.01245 15.1779 1.50539 15.6896C1.99834 16.2012 2.67309 16.498 3.38337 16.5155ZM3.25003 3.41546C3.25003 3.26546 3.33337 3.18213 3.38337 3.18213H8.95003C8.95003 3.18213 9.08337 3.26546 9.08337 3.41546V13.7821C9.08337 13.9321 9.08337 14.0155 8.95003 14.0155H3.38337C3.38337 14.0155 3.25003 13.9321 3.25003 13.7821V3.41546ZM31.7167 24.0155C31.0064 24.0329 30.3317 24.3297 29.8387 24.8414C29.3458 25.353 29.0744 26.0384 29.0834 26.7488V37.3488C29.092 37.6859 29.167 38.018 29.304 38.3261C29.4411 38.6342 29.6375 38.9123 29.882 39.1444C30.1266 39.3766 30.4145 39.5583 30.7293 39.6792C31.0441 39.8 31.3796 39.8577 31.7167 39.8488H37.2834C37.6205 39.8577 37.956 39.8 38.2708 39.6792C38.5856 39.5583 38.8735 39.3766 39.118 39.1444C39.3626 38.9123 39.559 38.6342 39.696 38.3261C39.8331 38.018 39.9081 37.6859 39.9167 37.3488V26.7488C39.9257 26.0384 39.6543 25.353 39.1613 24.8414C38.6684 24.3297 37.9936 24.0329 37.2834 24.0155H31.7167ZM37.4167 26.7488V35.2655C37.4167 35.376 37.3728 35.4819 37.2947 35.5601C37.2165 35.6382 37.1105 35.6821 37 35.6821H32C31.8895 35.6821 31.7835 35.6382 31.7054 35.5601C31.6273 35.4819 31.5834 35.376 31.5834 35.2655V26.7488C31.5834 26.5988 31.6667 26.5155 31.7167 26.5155H37.2834C37.2834 26.5155 37.4167 26.5988 37.4167 26.7488Z" fill="#F4B942"/>
</g>
<defs>
<clipPath id="clip0_170_1136">
<rect width="40" height="40" fill="white" transform="translate(0.333374 0.265625)"/>
</clipPath>
</defs>
</svg>
